<?xml version="1.0" encoding="utf-8"?>
<?xml-stylesheet type="text/xsl" href="rss1.xsl"?>
<rss version="2.0" xmlns:atom="http://www.w3.org/2005/Atom" xmlns:content="http://purl.org/rss/1.0/modules/content/" xmlns:dc="http://purl.org/dc/elements/1.1/" xmlns:media="http://search.yahoo.com/mrss/">
<channel>
 <title>Getty</title>
 <link>http://www.gettyimg.com/</link>
 <atom:link href="http://www.gettyimg.com/" rel="self" type="application/rss+xml" />

 
                <item>
                <title><![CDATA[【Cinema Center】MOVIE - Barbie 2023 AMZN 4K WEBRip 2160p DD+5.1 Atmos DoVi HDR H.265]]></title>
                <link><![CDATA[https://sharemania.us/threads/barbie-2023-amzn-4k-webrip-2160p-dd-5-1-atmos-dovi-hdr-h-265.229449/]]></link>
                <description><![CDATA[<article>
<blockquote class="messageText SelectQuoteContainer ugc baseHtml">
<div style="text-align: center"><img src="https://i.imgur.com/FDw611z.jpg" class="bbCodeImage LbImage" alt="[​IMG]" data-url="https://i.imgur.com/FDw611z.jpg" style=""> <br>
<img src="https://i.imgur.com/TeXzl3J.jpg" class="bbCodeImage LbImage" alt="[​IMG]" data-url="https://i.imgur.com/TeXzl3J.jpg" style=""> <br>
<br>
Mediainfo:<br>
<div class="ToggleTriggerAnchor bbCodeSpoilerContainer">
<button type="button" class="button bbCodeSpoilerButton ToggleTrigger Tooltip JsOnly" data-target="> .SpoilerTarget"><span>Spoiler</span></button>
<div class="SpoilerTarget bbCodeSpoilerText">Format : Matroska<br>
Format version : Version 4<br>
File size : 19.9 GiB<br>
Duration : 1 h 54 min<br>
Overall bit rate : 24.9 Mb/s<br>
Writing application : mkvmerge v79.0 ('Funeral Pyres') 64-bit<br>
Writing library : libebml v1.4.4 + libmatroska v1.7.1<br>
<br>
Video<br>
ID : 1<br>
Format : HEVC<br>
Format/Info : High Efficiency Video Coding<br>
Format profile : Main 10@L5@High<br>
HDR format : Dolby Vision, Version 1.0, dvhe.08.06, BL+RPU, HDR10 compatible / SMPTE ST 2094 App 4, Version 1, HDR10+ Profile B compatible<br>
Codec ID : V_MPEGH/ISO/HEVC<br>
Duration : 1 h 54 min<br>
Bit rate : 24.2 Mb/s<br>
Width : 3 840 pixels<br>
Height : 1 920 pixels<br>
Display aspect ratio : 2.000<br>
Frame rate mode : Constant<br>
Frame rate : 23.976 (24000/1001) FPS<br>
Color space : YUV<br>
Chroma subsampling : 4:2:0 (Type 2)<br>
Bit depth : 10 bits<br>
Bits/(Pixel*Frame) : 0.137<br>
Stream size : 19.3 GiB (97%)<br>
Default : Yes<br>
Forced : No<br>
Color range : Limited<br>
Color primaries : BT.2020<br>
Transfer characteristics : PQ<br>
Matrix coefficients : BT.2020 non-constant<br>
Mastering display color primar : BT.2020<br>
Mastering display luminance : min: 0.0050 cd/m2, max: 1000 cd/m2<br>
Maximum Content Light Level : 928 cd/m2<br>
Maximum Frame-Average Light Le : 411 cd/m2<br>
<br>
Audio<br>
ID : 2<br>
Format : E-AC-3 JOC<br>
Format/Info : Enhanced AC-3 with Joint Object Coding<br>
Commercial name : Dolby Digital Plus with Dolby Atmos<br>
Codec ID : A_EAC3<br>
Duration : 1 h 54 min<br>
Bit rate mode : Constant<br>
Bit rate : 768 kb/s<br>
Channel(s) : 6 channels<br>
Channel layout : L R C LFE Ls Rs<br>
Sampling rate : 48.0 kHz<br>
Frame rate : 31.250 FPS (1536 SPF)<br>
Compression mode : Lossy<br>
Stream size : 626 MiB (3%)<br>
Language : English<br>
Service kind : Complete Main<br>
Default : Yes<br>
Forced : No<br>
Complexity index : 16<br>
Number of dynamic objects : 15<br>
Bed channel count : 1 channel<br>
Bed channel configuration : LFE<br>
<br>
Text #1<br>
ID : 3<br>
Format : UTF-8<br>
Codec ID : S_TEXT/UTF8<br>
Codec ID/Info : UTF-8 Plain Text<br>
Duration : 1 h 51 min<br>
Bit rate : 104 b/s<br>
Frame rate : 0.379 FPS<br>
Count of elements : 2541<br>
Stream size : 85.7 KiB (0%)<br>
Language : English<br>
Default : Yes<br>
Forced : Yes<br>
<br>
Text #2<br>
ID : 4<br>
Format : UTF-8<br>
Codec ID : S_TEXT/UTF8<br>
Codec ID/Info : UTF-8 Plain Text<br>
Duration : 1 h 52 min<br>
Bit rate : 107 b/s<br>
Frame rate : 0.288 FPS<br>
Count of elements : 1949<br>
Stream size : 88.7 KiB (0%)<br>
Language : Bulgarian<br>
Default : No<br>
Forced : No<br>
<br>
Text #3<br>
ID : 5<br>
Format : UTF-8<br>
Codec ID : S_TEXT/UTF8<br>
Codec ID/Info : UTF-8 Plain Text<br>
Duration : 1 h 52 min<br>
Bit rate : 69 b/s<br>
Frame rate : 0.283 FPS<br>
Count of elements : 1916<br>
Stream size : 57.5 KiB (0%)<br>
Language : Czech<br>
Default : No<br>
Forced : No<br>
<br>
Text #4<br>
ID : 6<br>
Format : UTF-8<br>
Codec ID : S_TEXT/UTF8<br>
Codec ID/Info : UTF-8 Plain Text<br>
Duration : 1 h 52 min<br>
Bit rate : 60 b/s<br>
Frame rate : 0.184 FPS<br>
Count of elements : 1242<br>
Stream size : 49.8 KiB (0%)<br>
Language : Danish<br>
Default : No<br>
Forced : No<br>
<br>
Text #5<br>
ID : 7<br>
Format : UTF-8<br>
Codec ID : S_TEXT/UTF8<br>
Codec ID/Info : UTF-8 Plain Text<br>
Duration : 1 h 52 min<br>
Bit rate : 117 b/s<br>
Frame rate : 0.287 FPS<br>
Count of elements : 1939<br>
Stream size : 97.4 KiB (0%)<br>
Language : Greek<br>
Default : No<br>
Forced : No<br>
<br>
Text #6<br>
ID : 8<br>
Format : UTF-8<br>
Codec ID : S_TEXT/UTF8<br>
Codec ID/Info : UTF-8 Plain Text<br>
Duration : 1 h 52 min<br>
Bit rate : 72 b/s<br>
Frame rate : 0.285 FPS<br>
Count of elements : 1931<br>
Stream size : 60.3 KiB (0%)<br>
Language : Spanish<br>
Default : No<br>
Forced : No<br>
<br>
Text #7<br>
ID : 9<br>
Format : UTF-8<br>
Codec ID : S_TEXT/UTF8<br>
Codec ID/Info : UTF-8 Plain Text<br>
Duration : 1 h 52 min<br>
Bit rate : 69 b/s<br>
Frame rate : 0.278 FPS<br>
Count of elements : 1882<br>
Stream size : 57.0 KiB (0%)<br>
Language : Spanish<br>
Default : No<br>
Forced : No<br>
<br>
Text #8<br>
ID : 10<br>
Format : UTF-8<br>
Codec ID : S_TEXT/UTF8<br>
Codec ID/Info : UTF-8 Plain Text<br>
Duration : 1 h 52 min<br>
Bit rate : 65 b/s<br>
Frame rate : 0.284 FPS<br>
Count of elements : 1919<br>
Stream size : 54.2 KiB (0%)<br>
Language : Estonian<br>
Default : No<br>
Forced : No<br>
<br>
Text #9<br>
ID : 11<br>
Format : UTF-8<br>
Codec ID : S_TEXT/UTF8<br>
Codec ID/Info : UTF-8 Plain Text<br>
Duration : 1 h 52 min<br>
Bit rate : 67 b/s<br>
Frame rate : 0.284 FPS<br>
Count of elements : 1919<br>
Stream size : 55.6 KiB (0%)<br>
Language : Finnish<br>
Default : No<br>
Forced : No<br>
<br>
Text #10<br>
ID : 12<br>
Format : UTF-8<br>
Codec ID : S_TEXT/UTF8<br>
Codec ID/Info : UTF-8 Plain Text<br>
Duration : 1 h 52 min<br>
Bit rate : 58 b/s<br>
Frame rate : 0.265 FPS<br>
Count of elements : 1791<br>
Stream size : 47.9 KiB (0%)<br>
Language : French<br>
Default : No<br>
Forced : No<br>
<br>
Text #11<br>
ID : 13<br>
Format : UTF-8<br>
Codec ID : S_TEXT/UTF8<br>
Codec ID/Info : UTF-8 Plain Text<br>
Duration : 1 h 52 min<br>
Bit rate : 110 b/s<br>
Frame rate : 0.288 FPS<br>
Count of elements : 1946<br>
Stream size : 91.7 KiB (0%)<br>
Language : Hebrew<br>
Default : No<br>
Forced : No<br>
<br>
Text #12<br>
ID : 14<br>
Format : UTF-8<br>
Codec ID : S_TEXT/UTF8<br>
Codec ID/Info : UTF-8 Plain Text<br>
Duration : 1 h 52 min<br>
Bit rate : 73 b/s<br>
Frame rate : 0.285 FPS<br>
Count of elements : 1930<br>
Stream size : 60.8 KiB (0%)<br>
Language : Hungarian<br>
Default : No<br>
Forced : No<br>
<br>
Text #13<br>
ID : 15<br>
Format : UTF-8<br>
Codec ID : S_TEXT/UTF8<br>
Codec ID/Info : UTF-8 Plain Text<br>
Duration : 1 h 52 min<br>
Bit rate : 67 b/s<br>
Frame rate : 0.286 FPS<br>
Count of elements : 1935<br>
Stream size : 55.6 KiB (0%)<br>
Language : Korean<br>
Default : No<br>
Forced : No<br>
<br>
Text #14<br>
ID : 16<br>
Format : UTF-8<br>
Codec ID : S_TEXT/UTF8<br>
Codec ID/Info : UTF-8 Plain Text<br>
Duration : 1 h 52 min<br>
Bit rate : 73 b/s<br>
Frame rate : 0.286 FPS<br>
Count of elements : 1936<br>
Stream size : 60.5 KiB (0%)<br>
Language : Lithuanian<br>
Default : No<br>
Forced : No<br>
<br>
Text #15<br>
ID : 17<br>
Format : UTF-8<br>
Codec ID : S_TEXT/UTF8<br>
Codec ID/Info : UTF-8 Plain Text<br>
Duration : 1 h 52 min<br>
Bit rate : 68 b/s<br>
Frame rate : 0.280 FPS<br>
Count of elements : 1895<br>
Stream size : 56.2 KiB (0%)<br>
Language : Latvian<br>
Default : No<br>
Forced : No<br>
<br>
Text #16<br>
ID : 18<br>
Format : UTF-8<br>
Codec ID : S_TEXT/UTF8<br>
Codec ID/Info : UTF-8 Plain Text<br>
Duration : 1 h 52 min<br>
Bit rate : 59 b/s<br>
Frame rate : 0.192 FPS<br>
Count of elements : 1296<br>
Stream size : 49.3 KiB (0%)<br>
Language : Dutch<br>
Default : No<br>
Forced : No<br>
<br>
Text #17<br>
ID : 19<br>
Format : UTF-8<br>
Codec ID : S_TEXT/UTF8<br>
Codec ID/Info : UTF-8 Plain Text<br>
Duration : 1 h 52 min<br>
Bit rate : 63 b/s<br>
Frame rate : 0.220 FPS<br>
Count of elements : 1486<br>
Stream size : 52.6 KiB (0%)<br>
Language : Norwegian<br>
Default : No<br>
Forced : No<br>
<br>
Text #18<br>
ID : 20<br>
Format : UTF-8<br>
Codec ID : S_TEXT/UTF8<br>
Codec ID/Info : UTF-8 Plain Text<br>
Duration : 1 h 52 min<br>
Bit rate : 62 b/s<br>
Frame rate : 0.277 FPS<br>
Count of elements : 1875<br>
Stream size : 52.0 KiB (0%)<br>
Language : Polish<br>
Default : No<br>
Forced : No<br>
<br>
Text #19<br>
ID : 21<br>
Format : UTF-8<br>
Codec ID : S_TEXT/UTF8<br>
Codec ID/Info : UTF-8 Plain Text<br>
Duration : 1 h 52 min<br>
Bit rate : 79 b/s<br>
Frame rate : 0.291 FPS<br>
Count of elements : 1968<br>
Stream size : 66.0 KiB (0%)<br>
Language : Portuguese<br>
Default : No<br>
Forced : No<br>
<br>
Text #20<br>
ID : 22<br>
Format : UTF-8<br>
Codec ID : S_TEXT/UTF8<br>
Codec ID/Info : UTF-8 Plain Text<br>
Duration : 1 h 52 min<br>
Bit rate : 71 b/s<br>
Frame rate : 0.286 FPS<br>
Count of elements : 1938<br>
Stream size : 58.9 KiB (0%)<br>
Language : Portuguese<br>
Default : No<br>
Forced : No<br>
<br>
Text #21<br>
ID : 23<br>
Format : UTF-8<br>
Codec ID : S_TEXT/UTF8<br>
Codec ID/Info : UTF-8 Plain Text<br>
Duration : 1 h 52 min<br>
Bit rate : 108 b/s<br>
Frame rate : 0.288 FPS<br>
Count of elements : 1947<br>
Stream size : 89.6 KiB (0%)<br>
Language : Russian<br>
Default : No<br>
Forced : No<br>
<br>
Text #22<br>
ID : 24<br>
Format : UTF-8<br>
Codec ID : S_TEXT/UTF8<br>
Codec ID/Info : UTF-8 Plain Text<br>
Duration : 1 h 52 min<br>
Bit rate : 62 b/s<br>
Frame rate : 0.235 FPS<br>
Count of elements : 1590<br>
Stream size : 51.8 KiB (0%)<br>
Language : Slovenian<br>
Default : No<br>
Forced : No<br>
<br>
Text #23<br>
ID : 25<br>
Format : UTF-8<br>
Codec ID : S_TEXT/UTF8<br>
Codec ID/Info : UTF-8 Plain Text<br>
Duration : 1 h 52 min<br>
Bit rate : 65 b/s<br>
Frame rate : 0.210 FPS<br>
Count of elements : 1424<br>
Stream size : 54.1 KiB (0%)<br>
Language : Swedish<br>
Default : No<br>
Forced : No<br>
<br>
Text #24<br>
ID : 26<br>
Format : UTF-8<br>
Codec ID : S_TEXT/UTF8<br>
Codec ID/Info : UTF-8 Plain Text<br>
Duration : 1 h 52 min<br>
Bit rate : 163 b/s<br>
Frame rate : 0.288 FPS<br>
Count of elements : 1951<br>
Stream size : 135 KiB (0%)<br>
Language : Thai<br>
Default : No<br>
Forced : No<br>
<br>
Text #25<br>
ID : 27<br>
Format : UTF-8<br>
Codec ID : S_TEXT/UTF8<br>
Codec ID/Info : UTF-8 Plain Text<br>
Duration : 1 h 52 min<br>
Bit rate : 76 b/s<br>
Frame rate : 0.283 FPS<br>
Count of elements : 1913<br>
Stream size : 63.2 KiB (0%)<br>
Language : Turkish<br>
Default : No<br>
Forced : No<br>
<br>
Text #26<br>
ID : 28<br>
Format : UTF-8<br>
Codec ID : S_TEXT/UTF8<br>
Codec ID/Info : UTF-8 Plain Text<br>
Duration : 1 h 52 min<br>
Bit rate : 66 b/s<br>
Frame rate : 0.288 FPS<br>
Count of elements : 1949<br>
Stream size : 54.7 KiB (0%)<br>
Language : Chinese<br>
Default : No<br>
Forced : No<br>
<br>
Text #27<br>
ID : 29<br>
Format : UTF-8<br>
Codec ID : S_TEXT/UTF8<br>
Codec ID/Info : UTF-8 Plain Text<br>
Duration : 1 h 53 min<br>
Bit rate : 69 b/s<br>
Frame rate : 0.354 FPS<br>
Count of elements : 2416<br>
Stream size : 57.5 KiB (0%)<br>
Language : Chinese<br>
Default : No<br>
Forced : No<br>
<br>
Text #28<br>
ID : 30<br>
Format : UTF-8<br>
Codec ID : S_TEXT/UTF8<br>
Codec ID/Info : UTF-8 Plain Text<br>
Duration : 1 h 52 min<br>
Bit rate : 58 b/s<br>
Frame rate : 0.285 FPS<br>
Count of elements : 1929<br>
Stream size : 48.5 KiB (0%)<br>
Language : Chinese<br>
Default : No<br>
Forced : No<br>
<br>
Text #29<br>
ID : 31<br>
Format : UTF-8<br>
Codec ID : S_TEXT/UTF8<br>
Codec ID/Info : UTF-8 Plain Text<br>
Duration : 1 h 53 min<br>
Bit rate : 79 b/s<br>
Frame rate : 0.241 FPS<br>
Count of elements : 1643<br>
Stream size : 66.0 KiB (0%)<br>
Language : German<br>
Default : No<br>
Forced : No<br>
<br>
Text #30<br>
ID : 32<br>
Format : UTF-8<br>
Codec ID : S_TEXT/UTF8<br>
Codec ID/Info : UTF-8 Plain Text<br>
Duration : 1 h 48 min<br>
Bit rate : 80 b/s<br>
Frame rate : 0.336 FPS<br>
Count of elements : 2183<br>
Stream size : 64.0 KiB (0%)<br>
Language : Italian<br>
Default : No<br>
Forced : No</div>
</div><br>
Download:<br>
<div class="bbCodeBlock bbCodeVfcHH HiddenContent">
<div class="attribution type">Hidden Content:</div>
<blockquote>You must either reply or click 'Like' to see the hidden information contained here.</blockquote>
</div></div>
<div class="messageTextEndMarker">&nbsp;</div>
</blockquote>
</article>]]></description>
                <author><![CDATA[stargamer]]></author>
                </item>

                </channel></rss>